<svg xmlns="http://www.w3.org/2000/svg" width="29.422" height="21.264" viewBox="0 0 29.422 21.264">
  <g id="right-arrow" transform="translate(0 -41.345)">
    <g id="Group_23" data-name="Group 23" transform="translate(0 41.345)">
      <path id="Path_2" data-name="Path 2" d="M28.952,50.984,18.329,41.754a1.793,1.793,0,0,0-2.278,0l-.971.838a1.3,1.3,0,0,0-.47.989,1.326,1.326,0,0,0,.47,1l6.2,5.4H1.589a1.7,1.7,0,0,0-1.126.4A1.281,1.281,0,0,0,0,51.354v1.185a1.526,1.526,0,0,0,1.589,1.436H21.353L15.081,59.4a1.261,1.261,0,0,0,0,1.964l.964.836a1.793,1.793,0,0,0,2.278,0L28.952,52.97A1.283,1.283,0,0,0,28.952,50.984Z" transform="translate(0 -41.345)" fill="#fff"/>
    </g>
  </g>
</svg>
