<svg xmlns="http://www.w3.org/2000/svg" width="35.767" height="35.767" viewBox="0 0 35.767 35.767">
  <g id="SVGRepo_iconCarrier" transform="translate(0.5 0.5)">
    <g id="Group_1" data-name="Group 1">
      <path id="Path_1" data-name="Path 1" d="M34.038,0H.729A.73.73,0,0,0,0,.729V34.038a.73.73,0,0,0,.729.729h17.7V23.15H14.691a.584.584,0,0,1-.584-.584v-4.71a.584.584,0,0,1,.584-.585h3.735V14.021c0-4.283,2.7-7.05,6.87-7.05l3.715.006a.584.584,0,0,1,.584.584v4.373a.584.584,0,0,1-.584.584h-2.5c-1.725,0-2.04.672-2.04,2v2.756h4.369a.585.585,0,0,1,.584.585v4.71a.584.584,0,0,1-.584.585H24.468V34.767h9.57a.73.73,0,0,0,.729-.729V.729A.729.729,0,0,0,34.038,0Z" fill="#fff" stroke="#fff" stroke-width="1"/>
    </g>
  </g>
</svg>
